<svg width="88" height="88" viewBox="0 0 88 88" fill="none" xmlns="http://www.w3.org/2000/svg">
<path d="M11 18.3333C11 14.2835 14.2835 11 18.3333 11H69.6667C73.7165 11 77 14.2835 77 18.3333V69.6667C77 73.7165 73.7165 77 69.6667 77H18.3333C14.2835 77 11 73.7165 11 69.6667V18.3333Z" fill="#03A9F4"/>
<path d="M36.6962 35.1523H33.0259V43.2813H36.643C37.6459 43.2813 38.4214 42.9532 38.9714 42.2968C39.5214 41.6405 39.7945 40.6853 39.7945 39.4313C39.7945 38.1297 39.514 37.0957 38.953 36.3257C38.392 35.5557 37.6385 35.1652 36.6962 35.1523Z" fill="#020F16"/>
<path d="M16.5 16.5V71.5H71.5V16.5H16.5ZM42.8358 45.4465C41.3215 46.9278 39.2205 47.6667 36.5347 47.6667H33.0257V56.8333H27.7622V30.7652H36.6428C39.2205 30.7652 41.2775 31.5663 42.8102 33.165C44.3428 34.7637 45.111 36.8408 45.111 39.3947C45.111 41.9485 44.352 43.9652 42.8358 45.4465ZM59.917 55.616C58.6172 56.6665 56.9085 57.1908 54.7965 57.1908C53.3757 57.1908 52.1217 56.914 51.0363 56.3585C49.951 55.803 49.0985 55.0293 48.4843 54.0393C47.8702 53.0493 47.5622 51.9805 47.5622 50.8347H52.3783C52.404 51.7165 52.6075 52.3802 52.9962 52.822C53.3848 53.2638 54.0192 53.4838 54.9028 53.4838C56.2632 53.4838 56.9433 52.8697 56.9433 51.6395C56.9433 51.2105 56.738 50.8127 56.3255 50.4497C55.913 50.0867 55 49.5953 53.5792 48.9738C51.491 48.1268 50.0555 47.2505 49.2727 46.3412C48.4898 45.4318 48.0993 44.3062 48.0993 42.9568C48.0993 41.261 48.7117 39.8622 49.9345 38.7585C51.1573 37.6548 52.7798 37.103 54.7947 37.103C56.9177 37.103 58.619 37.653 59.8968 38.7493C61.1747 39.8457 61.8127 41.3215 61.8127 43.1713H56.7453C56.7453 41.5965 56.0908 40.8082 54.7763 40.8082C54.2392 40.8082 53.7992 40.975 53.4508 41.3087C53.1025 41.6423 52.932 42.1098 52.932 42.7057C52.932 43.1347 53.1227 43.5142 53.5058 43.8423C53.889 44.1705 54.7873 44.6398 56.21 45.2485C58.2762 46.013 59.7337 46.8637 60.588 47.8005C61.4423 48.7373 61.8677 49.9528 61.8677 51.4433C61.8677 53.1758 61.2168 54.5655 59.917 55.616Z" fill="#020F16"/>
</svg>
