<svg width="88" height="88" viewBox="0 0 88 88" fill="none" xmlns="http://www.w3.org/2000/svg">
<path d="M11 18.3333C11 14.2835 14.2835 11 18.3333 11H69.6667C73.7165 11 77 14.2835 77 18.3333V69.6667C77 73.7165 73.7165 77 69.6667 77H18.3333C14.2835 77 11 73.7165 11 69.6667V18.3333Z" fill="#FF5722"/>
<path d="M16.5 16.5V71.5H71.5V16.5H16.5ZM43.4335 56.8333L42.0365 51.4983H34.8572L33.462 56.8333H27.8942L36.0397 30.7652H40.8558L49.0563 56.8333H43.4335ZM56.5583 56.8333H51.4745V37.4623H56.5583V56.8333ZM56.012 34.3823C55.5152 34.8957 54.846 35.1523 53.9972 35.1523C53.1483 35.1523 52.4792 34.8957 51.9823 34.3823C51.4855 33.869 51.2398 33.2237 51.2398 32.4482C51.2398 31.6598 51.491 31.0163 51.9915 30.514C52.492 30.0117 53.163 29.7623 53.9972 29.7623C54.8313 29.7623 55.5005 30.0135 56.0028 30.514C56.5052 31.0145 56.7545 31.6598 56.7545 32.4482C56.7545 33.2237 56.507 33.869 56.012 34.3823Z" fill="#1C0802"/>
<path d="M36.0049 47.1112H40.8742L38.4395 37.8198L36.0049 47.1112Z" fill="#1C0802"/>
</svg>
