<svg width="88" height="88" viewBox="0 0 88 88" fill="none" xmlns="http://www.w3.org/2000/svg">
<path d="M47.6665 31.1667H32.9998C25.9122 31.1667 20.1665 25.421 20.1665 18.3333C20.1665 11.2457 25.9122 5.5 32.9998 5.5H47.6665V31.1667Z" fill="#E64A19"/>
<path d="M45.8332 56.8334H32.9998C25.9122 56.8334 20.1665 51.0877 20.1665 44C20.1665 36.9124 25.9122 31.1667 32.9998 31.1667H45.8332V56.8334Z" fill="#7C4DFF"/>
<path d="M32.9998 82.5C25.9122 82.5 20.1665 76.7543 20.1665 69.6666C20.1665 62.579 25.9122 56.8333 32.9998 56.8333H45.8332V69.6666C45.8332 76.7543 40.0875 82.5 32.9998 82.5Z" fill="#66BB6A"/>
<path d="M58.6668 31.1667H45.8335V5.5H58.6668C65.7545 5.5 71.5002 11.2457 71.5002 18.3333C71.5002 25.421 65.7545 31.1667 58.6668 31.1667Z" fill="#FF7043"/>
<path d="M58.6668 56.8334C65.7545 56.8334 71.5002 51.0877 71.5002 44C71.5002 36.9124 65.7545 31.1667 58.6668 31.1667C51.5792 31.1667 45.8335 36.9124 45.8335 44C45.8335 51.0877 51.5792 56.8334 58.6668 56.8334Z" fill="#29B6F6"/>
</svg>
