<svg width="88" height="48" viewBox="0 0 88 48" fill="none" xmlns="http://www.w3.org/2000/svg">
<g clip-path="url(#clip0_924_7)">
<mask id="mask0_924_7" style="mask-type:luminance" maskUnits="userSpaceOnUse" x="0" y="0" width="88" height="48">
<path d="M88 0H0V48H88V0Z" fill="white"/>
</mask>
<g mask="url(#mask0_924_7)">
<mask id="mask1_924_7" style="mask-type:luminance" maskUnits="userSpaceOnUse" x="0" y="0" width="88" height="48">
<path d="M88 0H0V48H88V0Z" fill="white"/>
</mask>
<g mask="url(#mask1_924_7)">
<path d="M86.8 46.8C87.5 46.1 88 44.9 88 44C88 42 46 0 44 0C42 0 0 42.1 0 44.1C0 46 2 48 3.9 48C4.8 48 14.1 39.3 24.7 28.8L44 9.5L63.3 28.8C73.9 39.3 83.2 48 84.1 48C84.9 48 86.1 47.5 86.8 46.8Z" fill="#9F52CC"/>
</g>
</g>
</g>
<defs>
<clipPath id="clip0_924_7">
<rect width="88" height="48" fill="white"/>
</clipPath>
</defs>
</svg>
