<svg width="159" height="52" viewBox="0 0 159 52" fill="none" xmlns="http://www.w3.org/2000/svg">
<path d="M9.47948 19.264C4.31948 19.264 1.27148 15.64 1.27148 10.552C1.27148 5.55997 4.31948 1.93597 9.47948 1.93597C13.7515 1.93597 16.6795 4.43197 17.3995 8.65597H15.3115C14.6875 5.58397 12.5275 3.78397 9.47948 3.78397C5.71148 3.78397 3.38348 6.39997 3.38348 10.552C3.38348 14.848 5.71148 17.416 9.47948 17.416C12.6235 17.416 14.6635 15.712 15.3115 12.544H17.3995C16.6555 16.912 13.8715 19.264 9.47948 19.264ZM20.5486 19H18.4606L25.3726 2.19997H27.4126L34.3486 19H32.2606L30.2926 14.2H22.5166L20.5486 19ZM26.4046 4.76797L23.2846 12.376H29.5246L26.4046 4.76797ZM41.2885 19H39.2725V4.04797H33.4645V2.19997H47.0965V4.04797H41.2885V19ZM61.6572 19H49.9692V2.19997H61.4412V4.04797H51.9612V9.35197H60.4812V11.152H51.9612V17.152H61.6572V19ZM66.8914 19H64.8754V2.19997H72.5314C75.6994 2.19997 77.8834 4.09597 77.8834 6.83197C77.8834 8.82397 76.5394 10.504 74.4994 11.152C75.3874 11.392 76.0114 11.968 76.3234 12.808L78.6514 19H76.4914L74.3314 13.168C74.0674 12.448 73.4914 12.064 72.6994 12.064H66.8914V19ZM66.8914 4.04797V10.264H72.6274C74.7154 10.264 75.8434 8.82397 75.8434 7.02397C75.8434 5.05597 74.4514 4.04797 72.6274 4.04797H66.8914ZM83.5086 19H81.4926V2.19997H83.5086V19ZM89.6024 19H87.5864V2.19997H89.8904L99.3944 16.12V2.19997H101.41V19H99.1064L89.6024 5.07997V19ZM106.212 19H104.124L111.036 2.19997H113.076L120.012 19H117.924L115.956 14.2H108.18L106.212 19ZM112.068 4.76797L108.948 12.376H115.188L112.068 4.76797Z" fill="#FF5714"/>
<path d="M48.5432 46.264C44.3192 46.264 41.4152 44.08 41.1992 40.912H43.3112C43.5512 43.072 45.5912 44.44 48.5432 44.44C51.1112 44.44 52.4552 43.384 52.4552 41.632C52.4552 39.928 50.9672 39.28 49.3592 38.776L46.4552 37.864C45.1112 37.432 41.7272 36.712 41.7272 33.424C41.7272 30.712 43.9592 28.936 47.4392 28.936C51.2792 28.936 53.6552 30.88 53.9192 34.456H51.8312C51.6632 32.08 50.0072 30.76 47.3432 30.76C45.2312 30.76 43.7432 31.72 43.7432 33.328C43.7432 35.176 45.6632 35.56 47.1032 36.016L49.8152 36.856C51.9512 37.528 54.5192 38.368 54.5192 41.536C54.5192 44.488 52.2632 46.264 48.5432 46.264ZM64.8983 46.264C60.0983 46.264 56.8103 42.856 56.8103 37.552C56.8103 32.56 59.8583 28.936 64.8983 28.936C69.7463 28.936 73.0343 32.344 73.0343 37.552C73.0343 42.592 69.9863 46.264 64.8983 46.264ZM64.8983 44.416C68.6423 44.416 70.9703 41.752 70.9703 37.552C70.9703 33.4 68.6183 30.784 64.8983 30.784C61.2023 30.784 58.8743 33.4 58.8743 37.552C58.8743 41.752 61.2023 44.416 64.8983 44.416ZM87.3677 46H76.3517V29.2H78.3677V44.152H87.3677V46ZM96.2953 46H90.3673V29.2H96.2953C101.119 29.2 104.479 32.608 104.479 37.504C104.479 42.52 101.119 46 96.2953 46ZM92.3833 31.048V44.152H96.4153C99.8953 44.152 102.343 41.416 102.343 37.504C102.343 33.88 99.8953 31.048 96.4153 31.048H92.3833ZM107.611 46H105.523L112.435 29.2H114.475L121.411 46H119.323L117.355 41.2H109.579L107.611 46ZM113.467 31.768L110.347 39.376H116.587L113.467 31.768ZM126.133 46H124.117V29.2H126.421L135.925 43.12V29.2H137.941V46H135.637L126.133 32.08V46ZM149.343 46.264C144.543 46.264 141.255 42.856 141.255 37.552C141.255 32.56 144.303 28.936 149.343 28.936C154.191 28.936 157.479 32.344 157.479 37.552C157.479 42.592 154.431 46.264 149.343 46.264ZM149.343 44.416C153.087 44.416 155.415 41.752 155.415 37.552C155.415 33.4 153.063 30.784 149.343 30.784C145.647 30.784 143.319 33.4 143.319 37.552C143.319 41.752 145.647 44.416 149.343 44.416Z" fill="#FF5714"/>
<path d="M127 11H148" stroke="#FF5714" stroke-width="2"/>
</svg>
