<svg width="159" height="52" viewBox="0 0 159 52" fill="none" xmlns="http://www.w3.org/2000/svg">
<path d="M9.47997 19.264C4.31997 19.264 1.27197 15.64 1.27197 10.552C1.27197 5.55997 4.31997 1.93597 9.47997 1.93597C13.752 1.93597 16.68 4.43197 17.4 8.65597H15.312C14.688 5.58397 12.528 3.78397 9.47997 3.78397C5.71197 3.78397 3.38397 6.39997 3.38397 10.552C3.38397 14.848 5.71197 17.416 9.47997 17.416C12.624 17.416 14.664 15.712 15.312 12.544H17.4C16.656 16.912 13.872 19.264 9.47997 19.264ZM20.5491 19H18.4611L25.3731 2.19997H27.4131L34.3491 19H32.2611L30.2931 14.2H22.5171L20.5491 19ZM26.4051 4.76797L23.2851 12.376H29.5251L26.4051 4.76797ZM41.289 19H39.273V4.04797H33.465V2.19997H47.097V4.04797H41.289V19ZM61.6577 19H49.9697V2.19997H61.4417V4.04797H51.9617V9.35197H60.4817V11.152H51.9617V17.152H61.6577V19ZM66.8919 19H64.8759V2.19997H72.5319C75.6999 2.19997 77.8839 4.09597 77.8839 6.83197C77.8839 8.82397 76.5399 10.504 74.4999 11.152C75.3879 11.392 76.0119 11.968 76.3239 12.808L78.6519 19H76.4919L74.3319 13.168C74.0679 12.448 73.4919 12.064 72.6999 12.064H66.8919V19ZM66.8919 4.04797V10.264H72.6279C74.7159 10.264 75.8439 8.82397 75.8439 7.02397C75.8439 5.05597 74.4519 4.04797 72.6279 4.04797H66.8919ZM83.5091 19H81.4931V2.19997H83.5091V19ZM89.6029 19H87.5869V2.19997H89.8909L99.3949 16.12V2.19997H101.411V19H99.1069L89.6029 5.07997V19ZM106.213 19H104.125L111.037 2.19997H113.077L120.013 19H117.925L115.957 14.2H108.181L106.213 19ZM112.069 4.76797L108.949 12.376H115.189L112.069 4.76797Z" fill="white"/>
<path d="M48.5439 46.264C44.3199 46.264 41.416 44.08 41.2 40.912H43.312C43.552 43.072 45.5919 44.44 48.5439 44.44C51.1119 44.44 52.456 43.384 52.456 41.632C52.456 39.928 50.968 39.28 49.36 38.776L46.456 37.864C45.112 37.432 41.728 36.712 41.728 33.424C41.728 30.712 43.9599 28.936 47.4399 28.936C51.2799 28.936 53.6559 30.88 53.9199 34.456H51.832C51.664 32.08 50.008 30.76 47.344 30.76C45.232 30.76 43.7439 31.72 43.7439 33.328C43.7439 35.176 45.664 35.56 47.104 36.016L49.816 36.856C51.952 37.528 54.52 38.368 54.52 41.536C54.52 44.488 52.2639 46.264 48.5439 46.264ZM64.8991 46.264C60.0991 46.264 56.8111 42.856 56.8111 37.552C56.8111 32.56 59.8591 28.936 64.8991 28.936C69.7471 28.936 73.0351 32.344 73.0351 37.552C73.0351 42.592 69.9871 46.264 64.8991 46.264ZM64.8991 44.416C68.6431 44.416 70.9711 41.752 70.9711 37.552C70.9711 33.4 68.6191 30.784 64.8991 30.784C61.2031 30.784 58.875 33.4 58.875 37.552C58.875 41.752 61.2031 44.416 64.8991 44.416ZM87.3685 46H76.3525V29.2H78.3685V44.152H87.3685V46ZM96.296 46H90.3681V29.2H96.296C101.12 29.2 104.48 32.608 104.48 37.504C104.48 42.52 101.12 46 96.296 46ZM92.3841 31.048V44.152H96.416C99.896 44.152 102.344 41.416 102.344 37.504C102.344 33.88 99.896 31.048 96.416 31.048H92.3841ZM107.612 46H105.524L112.436 29.2H114.476L121.412 46H119.324L117.356 41.2H109.58L107.612 46ZM113.468 31.768L110.348 39.376H116.588L113.468 31.768ZM126.134 46H124.118V29.2H126.422L135.926 43.12V29.2H137.942V46H135.638L126.134 32.08V46ZM149.344 46.264C144.544 46.264 141.256 42.856 141.256 37.552C141.256 32.56 144.304 28.936 149.344 28.936C154.192 28.936 157.48 32.344 157.48 37.552C157.48 42.592 154.432 46.264 149.344 46.264ZM149.344 44.416C153.088 44.416 155.416 41.752 155.416 37.552C155.416 33.4 153.064 30.784 149.344 30.784C145.648 30.784 143.32 33.4 143.32 37.552C143.32 41.752 145.648 44.416 149.344 44.416Z" fill="white"/>
<path d="M127 11H148" stroke="white" stroke-width="2"/>
</svg>
