<svg width="263" height="48" viewBox="0 0 263 48" fill="none" xmlns="http://www.w3.org/2000/svg">
<path d="M19.082 14.3164C21.2617 14.3164 22.9531 14.8906 24.1562 16.0391C25.3594 17.1875 26.0273 18.4922 26.1602 19.9531H23.8867C23.6289 18.8438 23.1133 17.9648 22.3398 17.3164C21.5742 16.668 20.4961 16.3438 19.1055 16.3438C17.4102 16.3438 16.0391 16.9414 14.9922 18.1367C13.9531 19.3242 13.4336 21.1484 13.4336 23.6094C13.4336 25.625 13.9023 27.2617 14.8398 28.5195C15.7852 29.7695 17.1914 30.3945 19.0586 30.3945C20.7773 30.3945 22.0859 29.7344 22.9844 28.4141C23.4609 27.7188 23.8164 26.8047 24.0508 25.6719H26.3242C26.1211 27.4844 25.4492 29.0039 24.3086 30.2305C22.9414 31.707 21.0977 32.4453 18.7773 32.4453C16.7773 32.4453 15.0977 31.8398 13.7383 30.6289C11.9492 29.0273 11.0547 26.5547 11.0547 23.2109C11.0547 20.6719 11.7266 18.5898 13.0703 16.9648C14.5234 15.1992 16.5273 14.3164 19.082 14.3164ZM38.0078 24.9453L35.3945 17.3398L32.6172 24.9453H38.0078ZM34.1758 14.7852H36.8125L43.0586 32H40.5039L38.7578 26.8438H31.9492L30.0859 32H27.6953L34.1758 14.7852ZM55.9258 14.7852V16.8359H50.125V32H47.7578V16.8359H41.957V14.7852H55.9258ZM58.293 14.7852H70.8438V16.8945H60.5664V22.1211H70.0703V24.1133H60.5664V29.9492H71.0195V32H58.293V14.7852ZM82.082 22.6719C83.1758 22.6719 84.0391 22.4531 84.6719 22.0156C85.3125 21.5781 85.6328 20.7891 85.6328 19.6484C85.6328 18.4219 85.1875 17.5859 84.2969 17.1406C83.8203 16.9062 83.1836 16.7891 82.3867 16.7891H76.6914V22.6719H82.082ZM74.3594 14.7852H82.3281C83.6406 14.7852 84.7227 14.9766 85.5742 15.3594C87.1914 16.0938 88 17.4492 88 19.4258C88 20.457 87.7852 21.3008 87.3555 21.957C86.9336 22.6133 86.3398 23.1406 85.5742 23.5391C86.2461 23.8125 86.75 24.1719 87.0859 24.6172C87.4297 25.0625 87.6211 25.7852 87.6602 26.7852L87.7422 29.0938C87.7656 29.75 87.8203 30.2383 87.9062 30.5586C88.0469 31.1055 88.2969 31.457 88.6562 31.6133V32H85.7969C85.7188 31.8516 85.6562 31.6602 85.6094 31.4258C85.5625 31.1914 85.5234 30.7383 85.4922 30.0664L85.3516 27.1953C85.2969 26.0703 84.8789 25.3164 84.0977 24.9336C83.6523 24.7227 82.9531 24.6172 82 24.6172H76.6914V32H74.3594V14.7852ZM91.9492 14.7852H94.3047V32H91.9492V14.7852ZM98.1016 14.7852H100.855L109.551 28.7305V14.7852H111.766V32H109.152L100.328 18.0664V32H98.1016V14.7852ZM124.281 24.9453L121.668 17.3398L118.891 24.9453H124.281ZM120.449 14.7852H123.086L129.332 32H126.777L125.031 26.8438H118.223L116.359 32H113.969L120.449 14.7852ZM138.344 26.4453C138.398 27.4219 138.629 28.2148 139.035 28.8242C139.809 29.9648 141.172 30.5352 143.125 30.5352C144 30.5352 144.797 30.4102 145.516 30.1602C146.906 29.6758 147.602 28.8086 147.602 27.5586C147.602 26.6211 147.309 25.9531 146.723 25.5547C146.129 25.1641 145.199 24.8242 143.934 24.5352L141.602 24.0078C140.078 23.6641 139 23.2852 138.367 22.8711C137.273 22.1523 136.727 21.0781 136.727 19.6484C136.727 18.1016 137.262 16.832 138.332 15.8398C139.402 14.8477 140.918 14.3516 142.879 14.3516C144.684 14.3516 146.215 14.7891 147.473 15.6641C148.738 16.5312 149.371 17.9219 149.371 19.8359H147.18C147.062 18.9141 146.812 18.207 146.43 17.7148C145.719 16.8164 144.512 16.3672 142.809 16.3672C141.434 16.3672 140.445 16.6562 139.844 17.2344C139.242 17.8125 138.941 18.4844 138.941 19.25C138.941 20.0938 139.293 20.7109 139.996 21.1016C140.457 21.3516 141.5 21.6641 143.125 22.0391L145.539 22.5898C146.703 22.8555 147.602 23.2188 148.234 23.6797C149.328 24.4844 149.875 25.6523 149.875 27.1836C149.875 29.0898 149.18 30.4531 147.789 31.2734C146.406 32.0938 144.797 32.5039 142.961 32.5039C140.82 32.5039 139.145 31.957 137.934 30.8633C136.723 29.7773 136.129 28.3047 136.152 26.4453H138.344ZM160.258 14.3164C163.297 14.3164 165.547 15.293 167.008 17.2461C168.148 18.7695 168.719 20.7188 168.719 23.0938C168.719 25.6641 168.066 27.8008 166.762 29.5039C165.23 31.5039 163.047 32.5039 160.211 32.5039C157.562 32.5039 155.48 31.6289 153.965 29.8789C152.613 28.1914 151.938 26.0586 151.938 23.4805C151.938 21.1523 152.516 19.1602 153.672 17.5039C155.156 15.3789 157.352 14.3164 160.258 14.3164ZM160.492 30.418C162.547 30.418 164.031 29.6836 164.945 28.2148C165.867 26.7383 166.328 25.043 166.328 23.1289C166.328 21.1055 165.797 19.4766 164.734 18.2422C163.68 17.0078 162.234 16.3906 160.398 16.3906C158.617 16.3906 157.164 17.0039 156.039 18.2305C154.914 19.4492 154.352 21.25 154.352 23.6328C154.352 25.5391 154.832 27.1484 155.793 28.4609C156.762 29.7656 158.328 30.418 160.492 30.418ZM171.508 14.7852H173.84V29.9492H182.559V32H171.508V14.7852ZM191.477 30.0078C192.266 30.0078 192.914 29.9258 193.422 29.7617C194.328 29.457 195.07 28.8711 195.648 28.0039C196.109 27.3086 196.441 26.418 196.645 25.332C196.762 24.6836 196.82 24.082 196.82 23.5273C196.82 21.3945 196.395 19.7383 195.543 18.5586C194.699 17.3789 193.336 16.7891 191.453 16.7891H187.316V30.0078H191.477ZM184.973 14.7852H191.945C194.312 14.7852 196.148 15.625 197.453 17.3047C198.617 18.8203 199.199 20.7617 199.199 23.1289C199.199 24.957 198.855 26.6094 198.168 28.0859C196.957 30.6953 194.875 32 191.922 32H184.973V14.7852ZM211.047 24.9453L208.434 17.3398L205.656 24.9453H211.047ZM207.215 14.7852H209.852L216.098 32H213.543L211.797 26.8438H204.988L203.125 32H200.734L207.215 14.7852ZM218.219 14.7852H220.973L229.668 28.7305V14.7852H231.883V32H229.27L220.445 18.0664V32H218.219V14.7852ZM242.992 14.3164C246.031 14.3164 248.281 15.293 249.742 17.2461C250.883 18.7695 251.453 20.7188 251.453 23.0938C251.453 25.6641 250.801 27.8008 249.496 29.5039C247.965 31.5039 245.781 32.5039 242.945 32.5039C240.297 32.5039 238.215 31.6289 236.699 29.8789C235.348 28.1914 234.672 26.0586 234.672 23.4805C234.672 21.1523 235.25 19.1602 236.406 17.5039C237.891 15.3789 240.086 14.3164 242.992 14.3164ZM243.227 30.418C245.281 30.418 246.766 29.6836 247.68 28.2148C248.602 26.7383 249.062 25.043 249.062 23.1289C249.062 21.1055 248.531 19.4766 247.469 18.2422C246.414 17.0078 244.969 16.3906 243.133 16.3906C241.352 16.3906 239.898 17.0039 238.773 18.2305C237.648 19.4492 237.086 21.25 237.086 23.6328C237.086 25.5391 237.566 27.1484 238.527 28.4609C239.496 29.7656 241.062 30.418 243.227 30.418Z" fill="#9F52CC"/>
</svg>
